HIERARCHY
ROOT Haolin_28_06:Solving:Hips
{
	OFFSET 0.000000 0.000000 0.000000
	CHANNELS 6 Xposition Yposition Zposition Xrotation Yrotation Zrotation
	JOINT Haolin_28_06:Solving:Spine
	{
		OFFSET 0.000000 -12.181966 2.015561
		CHANNELS 6 Xposition Yposition Zposition Xrotation Yrotation Zrotation
		JOINT Haolin_28_06:Solving:Spine1
		{
			OFFSET 0.000000 -8.890296 1.567602
			CHANNELS 6 Xposition Yposition Zposition Xrotation Yrotation Zrotation
			JOINT Haolin_28_06:Solving:Spine2
			{
				OFFSET 0.000000 -8.993092 0.786796
				CHANNELS 6 Xposition Yposition Zposition Xrotation Yrotation Zrotation
				JOINT Haolin_28_06:Solving:Spine3
				{
					OFFSET 0.000000 -9.027443 0.000000
					CHANNELS 6 Xposition Yposition Zposition Xrotation Yrotation Zrotation
					JOINT Haolin_28_06:Solving:Neck
					{
						OFFSET 0.000000 -11.606712 -1.160669
						CHANNELS 6 Xposition Yposition Zposition Xrotation Yrotation Zrotation
						JOINT Haolin_28_06:Solving:Neck1
						{
							OFFSET 0.000000 -7.471592 -0.653680
							CHANNELS 6 Xposition Yposition Zposition Xrotation Yrotation Zrotation
							JOINT Haolin_28_06:Solving:Head
							{
								OFFSET 0.000000 -7.386181 -1.302382
								CHANNELS 6 Xposition Yposition Zposition Xrotation Yrotation Zrotation
								JOINT Haolin_28_06:Solving:HeadEnd
								{
									OFFSET 0.000000 -9.728081 0.000002
									CHANNELS 6 Xposition Yposition Zposition Xrotation Yrotation Zrotation
									End Site
									{
										OFFSET 0.000000 -9.728081 0.000002
									}
								}
							}
						}
					}
					JOINT Haolin_28_06:Solving:RightShoulder
					{
						OFFSET 0.000000 -8.290508 -5.270916
						CHANNELS 6 Xposition Yposition Zposition Xrotation Yrotation Zrotation
						JOINT Haolin_28_06:Solving:RightArm
						{
							OFFSET -19.261074 -0.000008 0.000000
							CHANNELS 6 Xposition Yposition Zposition Xrotation Yrotation Zrotation
							JOINT Haolin_28_06:Solving:RightForeArm
							{
								OFFSET -30.691700 -0.000011 0.000000
								CHANNELS 6 Xposition Yposition Zposition Xrotation Yrotation Zrotation
								JOINT Haolin_28_06:Solving:RightHand
								{
									OFFSET -20.216934 -0.000008 0.000000
									CHANNELS 6 Xposition Yposition Zposition Xrotation Yrotation Zrotation
									JOINT Haolin_28_06:Solving:RightHandThumb1
									{
										OFFSET -4.948814 2.881329 -3.679893
										CHANNELS 6 Xposition Yposition Zposition Xrotation Yrotation Zrotation
										End Site
										{
											OFFSET -7.039886 -0.000004 -7.104978
										}
									}
									JOINT Haolin_28_06:Solving:RightHandMiddle1
									{
										OFFSET -13.196846 -0.000004 0.084595
										CHANNELS 6 Xposition Yposition Zposition Xrotation Yrotation Zrotation
										End Site
										{
											OFFSET -10.002037 -0.000004 0.000000
										}
									}
								}
							}
						}
					}
					JOINT Haolin_28_06:Solving:LeftShoulder
					{
						OFFSET 0.000000 -8.290508 -5.270916
						CHANNELS 6 Xposition Yposition Zposition Xrotation Yrotation Zrotation
						JOINT Haolin_28_06:Solving:LeftArm
						{
							OFFSET 19.261074 -0.000008 0.000000
							CHANNELS 6 Xposition Yposition Zposition Xrotation Yrotation Zrotation
							JOINT Haolin_28_06:Solving:LeftForeArm
							{
								OFFSET 30.691700 -0.000011 0.000000
								CHANNELS 6 Xposition Yposition Zposition Xrotation Yrotation Zrotation
								JOINT Haolin_28_06:Solving:LeftHand
								{
									OFFSET 20.216934 -0.000008 0.000000
									CHANNELS 6 Xposition Yposition Zposition Xrotation Yrotation Zrotation
									JOINT Haolin_28_06:Solving:LeftHandThumb1
									{
										OFFSET 4.948814 2.881329 -3.679893
										CHANNELS 6 Xposition Yposition Zposition Xrotation Yrotation Zrotation
										End Site
										{
											OFFSET 7.039886 -0.000004 -7.104978
										}
									}
									JOINT Haolin_28_06:Solving:LeftHandMiddle1
									{
										OFFSET 13.196846 -0.000004 0.084595
										CHANNELS 6 Xposition Yposition Zposition Xrotation Yrotation Zrotation
										End Site
										{
											OFFSET 10.002037 -0.000004 0.000000
										}
									}
								}
							}
						}
					}
				}
			}
		}
	}
	JOINT Haolin_28_06:Solving:RightUpLeg
	{
		OFFSET -10.083070 0.000000 0.000000
		CHANNELS 6 Xposition Yposition Zposition Xrotation Yrotation Zrotation
		JOINT Haolin_28_06:Solving:RightLeg
		{
			OFFSET 0.000000 47.042522 -0.000008
			CHANNELS 6 Xposition Yposition Zposition Xrotation Yrotation Zrotation
			JOINT Haolin_28_06:Solving:RightFoot
			{
				OFFSET 0.000000 38.766415 -0.000006
				CHANNELS 6 Xposition Yposition Zposition Xrotation Yrotation Zrotation
				JOINT Haolin_28_06:Solving:RightForeFoot
				{
					OFFSET 0.000000 3.531212 -0.000000
					CHANNELS 6 Xposition Yposition Zposition Xrotation Yrotation Zrotation
					JOINT Haolin_28_06:Solving:RightToeBase
					{
						OFFSET 0.000000 0.000000 -13.829352
						CHANNELS 6 Xposition Yposition Zposition Xrotation Yrotation Zrotation
						JOINT Haolin_28_06:Solving:RightToeBaseEnd
						{
							OFFSET 0.000000 0.000000 -4.034167
							CHANNELS 6 Xposition Yposition Zposition Xrotation Yrotation Zrotation
							End Site
							{
								OFFSET 0.000000 -4.034164 0.000004
							}
						}
					}
				}
			}
		}
	}
	JOINT Haolin_28_06:Solving:LeftUpLeg
	{
		OFFSET 10.083070 0.000000 0.000000
		CHANNELS 6 Xposition Yposition Zposition Xrotation Yrotation Zrotation
		JOINT Haolin_28_06:Solving:LeftLeg
		{
			OFFSET 0.000000 47.042522 -0.000008
			CHANNELS 6 Xposition Yposition Zposition Xrotation Yrotation Zrotation
			JOINT Haolin_28_06:Solving:LeftFoot
			{
				OFFSET 0.000000 38.766415 -0.000006
				CHANNELS 6 Xposition Yposition Zposition Xrotation Yrotation Zrotation
				JOINT Haolin_28_06:Solving:LeftForeFoot
				{
					OFFSET 0.000000 3.531212 -0.000000
					CHANNELS 6 Xposition Yposition Zposition Xrotation Yrotation Zrotation
					JOINT Haolin_28_06:Solving:LeftToeBase
					{
						OFFSET 0.000000 0.000000 -13.829352
						CHANNELS 6 Xposition Yposition Zposition Xrotation Yrotation Zrotation
						JOINT Haolin_28_06:Solving:LeftToeBaseEnd
						{
							OFFSET 0.000000 0.000000 -4.855067
							CHANNELS 6 Xposition Yposition Zposition Xrotation Yrotation Zrotation
							End Site
							{
								OFFSET 0.000000 -4.855064 0.000004
							}
						}
					}
				}
			}
		}
	}
}
MOTION
Frames: 4
Frame Time: 0.041667
-6.045283 12.442188 -93.964531 78.330645 5.233480 1.474552 0.000000 -12.181960 2.015572 15.743328 -0.085064 -3.490175 -0.000000 -8.890296 1.567600 0.393965 0.115415 -0.613060 -0.000001 -8.993073 0.786796 0.457035 0.680451 0.056027 -0.000001 -9.027408 -0.000000 0.653569 -0.431306 1.770984 0.000001 -11.606688 -1.160663 -13.035416 4.829444 -1.701707 -0.000001 -7.471591 -0.653679 -4.148441 3.422978 -3.603347 0.000000 -7.386192 -1.302378 -0.172177 1.193337 -4.936152 0.000001 -9.728096 -0.000003 0.000001 0.000001 -0.000001 0.000001 -8.290493 -5.270909 -0.000012 18.550623 8.235268 -19.261070 -0.000012 0.000001 -10.435892 -46.632154 -93.446359 -30.691721 -0.000006 -0.000003 -20.751670 -7.513163 -2.836259 -20.216940 -0.000014 0.000007 -0.346503 -8.782410 -2.268299 -4.948804 2.881322 -3.679879 -0.000003 0.000002 0.000004 -13.196862 -0.000007 0.084593 -0.000002 0.000004 -0.000001 0.000002 -8.290512 -5.270908 -0.000006 -10.762282 -6.484904 19.261074 0.000009 0.000003 -5.590696 34.750298 93.686058 30.691700 -0.000020 0.000000 -3.590812 15.111920 0.937288 20.216925 -0.000017 -0.000004 -0.527249 -5.230868 -5.763781 4.948815 2.881318 -3.679881 0.000001 -0.000010 -0.000000 13.196877 0.000001 0.084599 0.000000 0.000000 0.000001 -10.083073 0.000006 0.000011 15.901790 16.950605 1.664136 0.000001 47.042538 -0.000006 -4.346914 0.000002 -0.000000 0.000003 38.766415 -0.000002 7.489786 17.916020 -11.829692 0.000000 3.531212 0.000004 0.000000 0.000000 -0.000000 0.000002 0.000013 -13.829350 -4.351153 0.000005 -0.000001 -0.000001 -0.000000 -4.034172 -0.000001 0.000008 -0.000000 10.083069 0.000000 0.000008 15.159362 -19.948080 -5.908321 0.000001 47.042507 -0.000006 3.473851 0.000003 -0.000000 -0.000009 38.766441 -0.000008 3.568681 -16.798864 15.797628 -0.000001 3.531219 0.000001 0.000000 -0.000000 -0.000002 0.000001 0.000002 -13.829351 4.134508 -0.000004 0.000000 0.000000 0.000000 -4.855066 0.000002 0.000002 -0.000000 
-6.051253 12.396944 -93.969185 78.400764 4.872393 1.376017 0.000000 -12.181939 2.015559 15.763622 -0.137519 -3.363873 0.000000 -8.890315 1.567609 0.418946 0.117875 -0.582018 -0.000000 -8.993086 0.786797 0.430694 0.884910 -0.027853 0.000000 -9.027440 0.000003 0.592617 -0.322134 1.540455 -0.000000 -11.606730 -1.160678 -13.230710 4.454159 -1.539272 0.000001 -7.471579 -0.653678 -4.091723 2.987308 -3.385887 0.000004 -7.386208 -1.302383 -0.069572 1.097950 -4.642480 -0.000002 -9.728096 -0.000005 -0.000001 -0.000000 -0.000001 -0.000002 -8.290512 -5.270929 -0.000010 18.589456 8.123345 -19.261072 -0.000030 0.000001 -11.036532 -49.219515 -94.930900 -30.691719 -0.000016 -0.000002 -23.603829 -8.023433 -3.490214 -20.216927 -0.000022 0.000005 0.006701 -7.989038 0.048186 -4.948808 2.881326 -3.679887 0.000001 -0.000003 -0.000002 -13.196838 -0.000005 0.084588 -0.000003 -0.000002 -0.000000 0.000000 -8.290512 -5.270929 -0.000005 -10.907393 -6.334327 19.261076 -0.000010 0.000001 -5.313611 31.169896 93.594533 30.691675 -0.000013 -0.000000 -1.210193 14.716792 0.307484 20.216949 -0.000010 0.000001 -0.316195 -3.549562 -5.093728 4.948813 2.881320 -3.679882 0.000001 -0.000007 -0.000002 13.196846 -0.000011 0.084595 -0.000004 0.000001 -0.000000 -10.083069 0.000021 -0.000001 15.831736 17.409852 1.645661 -0.000002 47.042538 -0.000008 -4.293812 -0.000001 -0.000000 0.000007 38.766418 -0.000003 7.445329 17.888921 -11.777514 -0.000001 3.531204 0.000002 0.000001 0.000002 0.000000 0.000003 0.000001 -13.829351 -4.372061 0.000004 0.000000 -0.000005 0.000000 -4.034174 0.000001 0.000005 -0.000000 10.083071 0.000024 -0.000003 14.907887 -19.526676 -5.949295 -0.000000 47.042511 -0.000008 3.718407 -0.000001 -0.000001 -0.000006 38.766430 -0.000005 3.492261 -16.858691 15.766967 0.000001 3.531212 -0.000001 0.000000 0.000000 0.000001 0.000003 0.000005 -13.829352 4.129703 -0.000003 -0.000000 -0.000000 -0.000008 -4.855068 -0.000001 -0.000003 0.000000 
-6.078600 12.366040 -93.981583 78.503708 4.662622 1.292765 0.000000 -12.181970 2.015561 15.789637 -0.164792 -3.216048 -0.000001 -8.890328 1.567602 0.394820 0.122382 -0.576101 -0.000000 -8.993109 0.786794 0.351506 0.908986 -0.109038 -0.000001 -9.027445 -0.000000 0.513398 -0.255284 1.322998 -0.000001 -11.606726 -1.160665 -13.331144 3.965444 -1.323247 0.000001 -7.471570 -0.653674 -4.096423 2.525176 -3.185692 0.000001 -7.386144 -1.302370 0.038778 0.998246 -4.324283 0.000001 -9.728043 -0.000004 -0.000001 0.000002 0.000002 -0.000002 -8.290489 -5.270917 -0.000012 18.569232 8.395206 -19.261072 -0.000003 -0.000001 -11.464880 -49.191641 -96.305497 -30.691721 -0.000025 -0.000003 -28.122155 -8.084961 -4.298571 -20.216940 -0.000012 0.000002 0.461876 -7.048162 3.758833 -4.948835 2.881324 -3.679877 -0.000004 -0.000002 0.000002 -13.196884 -0.000004 0.084601 -0.000002 0.000000 -0.000001 -0.000001 -8.290504 -5.270916 -0.000008 -11.136894 -6.184163 19.261080 0.000032 -0.000004 -5.036787 29.193530 93.200014 30.691706 -0.000012 -0.000000 -0.412168 14.548665 0.103542 20.216928 -0.000011 0.000004 -0.161634 -2.194239 -4.214083 4.948813 2.881326 -3.679873 -0.000002 -0.000002 -0.000002 13.196855 -0.000011 0.084600 0.000004 -0.000001 0.000001 -10.083071 -0.000010 -0.000003 15.698355 17.734899 1.648067 -0.000001 47.042526 -0.000007 -4.209797 0.000001 -0.000000 -0.000000 38.766426 -0.000006 7.392984 17.849516 -11.768967 0.000003 3.531204 -0.000005 -0.000000 -0.000005 -0.000001 0.000004 0.000012 -13.829350 -4.391671 -0.000006 0.000000 0.000002 -0.000000 -4.034163 -0.000002 -0.000001 -0.000000 10.083070 0.000001 0.000000 14.675148 -19.384121 -5.969200 -0.000000 47.042526 -0.000006 3.870623 0.000002 0.000000 -0.000005 38.766430 -0.000008 3.492152 -16.794745 15.784946 0.000001 3.531212 -0.000001 0.000001 -0.000001 0.000001 0.000001 -0.000007 -13.829351 4.142079 0.000003 0.000001 0.000006 0.000000 -4.855069 0.000000 -0.000003 0.000003 
-6.109361 12.342245 -93.999245 78.641377 4.527222 1.209761 -0.000002 -12.181983 2.015565 15.779655 -0.162163 -3.081846 -0.000001 -8.890301 1.567606 0.347581 0.124264 -0.584780 -0.000001 -8.993065 0.786793 0.258009 0.810045 -0.184353 0.000002 -9.027424 0.000001 0.462804 -0.238662 1.151817 0.000001 -11.606697 -1.160682 -13.346064 3.441257 -1.162637 0.000002 -7.471584 -0.653677 -4.106368 2.060623 -2.887326 0.000004 -7.386210 -1.302387 0.016684 0.901930 -3.975561 0.000001 -9.728035 -0.000006 0.000002 -0.000000 -0.000002 -0.000001 -8.290508 -5.270928 -0.000010 18.780807 8.694540 -19.261082 0.000022 -0.000004 -11.465100 -49.275423 -97.060827 -30.691679 -0.000020 -0.000001 -31.781768 -8.464450 -5.210974 -20.216944 -0.000012 0.000004 1.059774 -7.368651 8.207481 -4.948804 2.881334 -3.679881 -0.000001 -0.000000 0.000003 -13.196855 -0.000000 0.084589 -0.000000 -0.000000 -0.000001 0.000000 -8.290516 -5.270927 -0.000005 -11.411034 -6.158442 19.261074 -0.000031 -0.000002 -4.709769 28.715980 92.711833 30.691690 -0.000021 -0.000004 -0.868740 15.004317 0.224927 20.216932 -0.000013 0.000002 -0.134059 -2.026187 -3.786125 4.948828 2.881321 -3.679880 0.000002 -0.000009 -0.000003 13.196868 -0.000009 0.084599 -0.000001 -0.000001 -0.000001 -10.083071 0.000006 0.000004 15.536957 17.931386 1.670256 0.000001 47.042545 -0.000009 -4.158663 -0.000002 -0.000000 0.000006 38.766415 -0.000006 7.379934 17.862838 -11.757167 0.000002 3.531212 -0.000002 0.000001 -0.000008 0.000000 0.000001 0.000016 -13.829352 -4.331424 0.000002 -0.000000 -0.000001 -0.000008 -4.034160 -0.000000 0.000001 0.000000 10.083071 0.000003 0.000004 14.438409 -19.298073 -5.967985 0.000000 47.042507 -0.000008 3.983524 -0.000001 0.000000 -0.000007 38.766411 -0.000006 3.558046 -16.716914 15.750879 -0.000000 3.531204 -0.000001 0.000001 -0.000004 -0.000001 -0.000001 0.000013 -13.829348 4.097381 -0.000003 -0.000001 -0.000005 -0.000000 -4.855067 -0.000000 0.000013 -0.000001 
